<svg width="55" height="38" viewBox="0 0 55 38" fill="none" xmlns="http://www.w3.org/2000/svg">
<rect x="0.5" y="0.5" width="54" height="37" rx="3.5" fill="white" stroke="#F3F3F3"/>
<path d="M24.4196 26.0614H20.7578L23.0481 12.7607H26.7097L24.4196 26.0614Z" fill="#15195A"/>
<path d="M37.6932 13.0858C36.971 12.8167 35.8254 12.5195 34.4089 12.5195C30.7928 12.5195 28.2464 14.3306 28.2308 16.9199C28.2008 18.8302 30.054 19.8913 31.44 20.5283C32.8567 21.1791 33.3383 21.604 33.3383 22.1842C33.3238 23.0752 32.1935 23.4859 31.1393 23.4859C29.6773 23.4859 28.894 23.2742 27.7036 22.7784L27.2214 22.5659L26.709 25.5516C27.5678 25.9191 29.1501 26.2452 30.7928 26.2595C34.635 26.2595 37.1364 24.4765 37.166 21.7172C37.1806 20.2031 36.2021 19.0429 34.0924 18.0949C32.8116 17.4863 32.0273 17.076 32.0273 16.4533C32.0423 15.8872 32.6907 15.3074 34.1364 15.3074C35.3268 15.279 36.2015 15.5477 36.8641 15.8167L37.1953 15.9579L37.6932 13.0858V13.0858V13.0858Z" fill="#15195A"/>
<path fill-rule="evenodd" clip-rule="evenodd" d="M44.2485 12.7607H47.0808L50.0349 26.0612H46.6445C46.6445 26.0612 46.3127 24.533 46.2076 24.066H41.5062C41.3702 24.4196 40.7377 26.0612 40.7377 26.0612H36.8955L42.3346 13.8643C42.7114 13.0011 43.375 12.7607 44.2485 12.7607ZM44.0229 17.628C44.0229 17.628 42.8625 20.5854 42.5609 21.3495H45.6045C45.454 20.6845 44.7605 17.5007 44.7605 17.5007L44.5046 16.3547C44.3969 16.6498 44.241 17.0555 44.1359 17.3292C44.0647 17.5147 44.0167 17.6395 44.0229 17.628Z" fill="#15195A"/>
<path fill-rule="evenodd" clip-rule="evenodd" d="M4.8923 12.7607H10.7837C11.5823 12.7888 12.2302 13.0293 12.4411 13.8788L13.7213 19.9893C13.7215 19.9899 13.7217 19.9905 13.7219 19.9911L14.1137 21.8305L17.6998 12.7607H21.5718L15.8162 26.0473H11.944L8.68024 14.4902C7.55415 13.8719 6.26896 13.3746 4.83203 13.0295L4.8923 12.7607Z" fill="#15195A"/>
</svg>
