<svg width="55" height="38" viewBox="0 0 55 38" fill="none" xmlns="http://www.w3.org/2000/svg">
<rect x="0.5" y="0.5" width="54" height="37" rx="3.5" fill="white" stroke="#F3F3F3"/>
<path fill-rule="evenodd" clip-rule="evenodd" d="M20.1496 29.3461V30.7491V32.1521H19.5358V31.8114C19.3411 32.0641 19.0457 32.2227 18.6441 32.2227C17.8525 32.2227 17.2319 31.6065 17.2319 30.7491C17.2319 29.8923 17.8525 29.2755 18.6441 29.2755C19.0457 29.2755 19.3411 29.4341 19.5358 29.6867V29.3461H20.1496ZM18.7205 29.8507C18.1892 29.8507 17.864 30.2559 17.864 30.7491C17.864 31.2423 18.1892 31.6475 18.7205 31.6475C19.2282 31.6475 19.5709 31.2598 19.5709 30.7491C19.5709 30.2384 19.2282 29.8507 18.7205 29.8507ZM40.8921 30.7491C40.8921 30.2559 41.2172 29.8507 41.7485 29.8507C42.2569 29.8507 42.599 30.2384 42.599 30.7491C42.599 31.2598 42.2569 31.6475 41.7485 31.6475C41.2172 31.6475 40.8921 31.2423 40.8921 30.7491ZM43.1783 28.2192V30.7491V32.1521H42.5638V31.8114C42.3691 32.0641 42.0737 32.2227 41.6722 32.2227C40.8806 32.2227 40.26 31.6065 40.26 30.7491C40.26 29.8923 40.8806 29.2755 41.6722 29.2755C42.0737 29.2755 42.3691 29.4341 42.5638 29.6867V28.2192H43.1783ZM27.7688 29.8218C28.1643 29.8218 28.4184 30.0684 28.4833 30.5025L27.0184 30.5025C27.084 30.0973 27.3314 29.8218 27.7688 29.8218ZM26.3749 30.7491C26.3749 29.8742 26.9535 29.2755 27.781 29.2755C28.5719 29.2755 29.1154 29.8742 29.1215 30.7491C29.1215 30.8311 29.1154 30.9077 29.1093 30.9836L27.013 30.9836C27.1016 31.4889 27.4619 31.671 27.8573 31.671C28.1406 31.671 28.4421 31.5648 28.6787 31.3773L28.9795 31.8296C28.6368 32.1172 28.2474 32.2227 27.8222 32.2227C26.9772 32.2227 26.3749 31.6414 26.3749 30.7491ZM35.1927 30.7491C35.1927 30.2559 35.5178 29.8507 36.0492 29.8507C36.5568 29.8507 36.8996 30.2384 36.8996 30.7491C36.8996 31.2598 36.5568 31.6475 36.0492 31.6475C35.5178 31.6475 35.1927 31.2423 35.1927 30.7491ZM37.4782 29.3461V30.7491V32.1521H36.8644V31.8114C36.6691 32.0641 36.3743 32.2227 35.9728 32.2227C35.1812 32.2227 34.5606 31.6065 34.5606 30.7491C34.5606 29.8923 35.1812 29.2755 35.9728 29.2755C36.3743 29.2755 36.6691 29.4341 36.8644 29.6867V29.3461H37.4782ZM31.7261 30.7491C31.7261 31.6004 32.3223 32.2227 33.2322 32.2227C33.6574 32.2227 33.9407 32.1286 34.2476 31.888L33.9528 31.3948C33.7223 31.5594 33.4803 31.6475 33.214 31.6475C32.7239 31.6414 32.3636 31.2893 32.3636 30.7491C32.3636 30.2088 32.7239 29.8567 33.214 29.8507C33.4803 29.8507 33.7223 29.9387 33.9528 30.1033L34.2476 29.6101C33.9407 29.3696 33.6574 29.2755 33.2322 29.2755C32.3223 29.2755 31.7261 29.8977 31.7261 30.7491ZM38.8957 29.6867C39.0552 29.4401 39.2858 29.2755 39.64 29.2755C39.7644 29.2755 39.9415 29.299 40.0774 29.3521L39.8881 29.9273C39.7583 29.8742 39.6285 29.8567 39.5041 29.8567C39.1026 29.8567 38.9018 30.1148 38.9018 30.5791V32.1521H38.2873V29.3461H38.8957V29.6867ZM23.1854 29.5691C22.89 29.3756 22.4831 29.2755 22.0342 29.2755C21.319 29.2755 20.8586 29.6162 20.8586 30.1739C20.8586 30.6315 21.2014 30.9137 21.8328 31.0017L22.1228 31.0427C22.4594 31.0898 22.6183 31.1778 22.6183 31.3364C22.6183 31.5534 22.3939 31.677 21.9747 31.677C21.5495 31.677 21.2426 31.542 21.0358 31.3834L20.7464 31.8585C21.0831 32.1051 21.5083 32.2227 21.9686 32.2227C22.7839 32.2227 23.2564 31.841 23.2564 31.3068C23.2564 30.8136 22.8846 30.5556 22.2701 30.4675L21.9808 30.4259C21.7151 30.3909 21.5022 30.3385 21.5022 30.1504C21.5022 29.9448 21.703 29.8218 22.0396 29.8218C22.3999 29.8218 22.7488 29.9569 22.9198 30.0623L23.1854 29.5691ZM30.3619 29.6867C30.5208 29.4401 30.7513 29.2755 31.1055 29.2755C31.2299 29.2755 31.407 29.299 31.5429 29.3521L31.3536 29.9273C31.2238 29.8742 31.0941 29.8567 30.9697 29.8567C30.5681 29.8567 30.3674 30.1148 30.3674 30.5791V32.1521H29.7535V29.3461H30.3619V29.6867ZM25.8671 29.3461H24.8632V28.4947H24.2427V29.3461H23.6701V29.9038H24.2427V31.1838C24.2427 31.8349 24.4968 32.2227 25.2229 32.2227C25.4892 32.2227 25.7961 32.1407 25.9908 32.0056L25.8137 31.4828C25.6305 31.5883 25.4297 31.6414 25.2702 31.6414C24.9633 31.6414 24.8632 31.4533 24.8632 31.1717V29.9038H25.8671V29.3461ZM16.6891 30.3909V32.1521H16.0685V30.5905C16.0685 30.1148 15.8677 29.8507 15.4486 29.8507C15.041 29.8507 14.7577 30.1094 14.7577 30.5965V32.1521H14.1372V30.5905C14.1372 30.1148 13.931 29.8507 13.5234 29.8507C13.1036 29.8507 12.8318 30.1094 12.8318 30.5965V32.1521H12.2119V29.3461H12.8264V29.6921C13.0569 29.3635 13.3517 29.2755 13.6532 29.2755C14.0844 29.2755 14.3913 29.4636 14.586 29.7748C14.8463 29.381 15.2181 29.2695 15.5784 29.2755C16.2639 29.2815 16.6891 29.7277 16.6891 30.3909Z" fill="#231F20"/>
<path d="M32.2856 24.5786H22.9824V7.95996H32.2856V24.5786Z" fill="#FF5F00"/>
<path d="M23.5722 16.2688C23.5722 12.8977 25.1601 9.89475 27.6329 7.95955C25.8246 6.54443 23.5424 5.69979 21.0622 5.69979C15.1904 5.69979 10.4307 10.4316 10.4307 16.2688C10.4307 22.106 15.1904 26.8379 21.0622 26.8379C23.5424 26.8379 25.8246 25.9933 27.6329 24.5781C25.1601 22.6429 23.5722 19.64 23.5722 16.2688" fill="#EB001B"/>
<path d="M44.8357 16.2688C44.8357 22.106 40.076 26.8379 34.2042 26.8379C31.724 26.8379 29.4418 25.9933 27.6328 24.5781C30.1063 22.6429 31.6942 19.64 31.6942 16.2688C31.6942 12.8977 30.1063 9.89475 27.6328 7.95955C29.4418 6.54443 31.724 5.69979 34.2042 5.69979C40.076 5.69979 44.8357 10.4316 44.8357 16.2688" fill="#F79E1B"/>
</svg>
