<svg width="55" height="38" viewBox="0 0 55 38" fill="none" xmlns="http://www.w3.org/2000/svg">
<rect x="0.5" y="0.5" width="54" height="37" rx="3.5" fill="white" stroke="#F3F3F3"/>
<path fill-rule="evenodd" clip-rule="evenodd" d="M8.8966 13.3019C8.91603 13.3018 8.9373 13.3014 8.96026 13.301C9.41189 13.2933 10.5156 13.2745 10.9965 14.9006C11.337 16.0516 11.8792 17.937 12.6234 20.5569H12.9264C13.7244 17.7949 14.2726 15.9094 14.571 14.9006C15.0511 13.2774 16.2082 13.2933 16.7693 13.301C16.805 13.3015 16.8383 13.3019 16.8689 13.3019L20.8086 13.3019V25.5795H16.7931V18.3441H16.5239L14.2854 25.5795H11.2643L9.02592 18.3388H8.75666V25.5795H4.74121V13.3019L8.8966 13.3019ZM26.5747 13.3019V20.5427H26.8951L29.6179 14.5887C30.1464 13.4038 31.2729 13.3019 31.2729 13.3019H35.1587V25.5795H31.0594V18.3388H30.739L28.0696 24.2928C27.5411 25.4723 26.3612 25.5795 26.3612 25.5795H22.4754V13.3019H26.5747ZM44.972 21.9222C46.9601 21.9222 48.7558 20.7597 49.3276 19.1363H36.7748V25.5795H40.673V21.9222H44.972Z" fill="#40A548"/>
<path d="M45.1599 13.3018H36.5703C36.7747 16.0352 39.1244 18.3751 41.5568 18.3751H49.5984C50.0624 16.1034 48.4649 13.3018 45.1599 13.3018Z" fill="#1291D0"/>
</svg>
