<svg width="660" height="262" fill="none" xmlns="http://www.w3.org/2000/svg"><g clip-path="url(#clip0_241_5796)" fill="#202020"><path d="M448.418 195.163a113.63 113.63 0 01-4.254 10.065 139.827 139.827 0 01-6.622 11.79c-.633.95-1.102 1.736-1.735 2.522-.627.786-1.102 1.73-1.734 2.511-7.724 10.381-17.019 18.722-28.053 25.01-15.289 8.804-33.104 13.684-53.275 14.153h-2.836l-14.978-66.046h113.487v-.005zm9.147-56.456c0 19.186-2.52 36.325-7.407 51.423h-22.855c-4.729-12.581-9.3-24.999-14.029-37.586l-19.385-13.678c1.734-6.769 3.627-13.684 5.356-20.447 18.442-4.558 36.884-8.963 55.484-13.526.316 1.255.475 2.516.627 3.777.164.944.317 1.73.317 2.511.791 6.452 1.418 12.429 1.734 17.619v1.414c.164 2.675.164 5.66.164 8.493h-.006zm-164.711-92a228.72 228.72 0 01-3.938 39c-.949 5.507-2.209 11.01-3.469 16.67-.316 1.102-.474 2.205-.785 3.302-.317 1.102-.475 2.047-.791 3.149-.317 1.414-.786 2.986-1.26 4.4-1.102 3.93-2.209 7.707-3.469 11.484a4806.093 4806.093 0 01-43.658 14.94c1.892-10.224 3.627-20.447 5.514-30.824.316-2.205.791-4.405 1.26-6.768.164-.781.316-1.725.475-2.51 2.209-9.908 5.361-19.187 9.458-27.522 8.04-16.511 19.227-29.41 33.414-38.847a50.486 50.486 0 014.888-2.985l1.887-.945v.786c.164 1.103.164 2.2.164 3.303.31 4.563.31 8.962.31 13.367zM269.836 149.87c-6.458 14.944-13.865 28.465-22.374 40.26a4.762 4.762 0 00-.791 1.103l-.944 1.419c-.633.78-1.26 1.725-1.893 2.511-1.892 2.516-3.785 4.874-5.836 7.079-.469.47-.944.939-1.254 1.572-.317.311-.633.786-1.108 1.097-.785.792-1.576 1.731-2.362 2.517-1.892 2.047-3.785 3.93-5.672 5.818-.949.945-2.051 1.889-3.153 2.833a45.56 45.56 0 01-3 2.675c3.627-19.978 7.255-39.792 10.724-59.758 12.447-2.991 25.058-5.977 37.669-9.126h-.006zm74.869 111.502h-.949c-20.171-.627-37.827-5.349-53.274-14.153-16.549-9.438-29.16-23.433-38.144-41.833a132.82 132.82 0 01-3.622-8.335c.469-.627.944-1.102 1.255-1.73.633-.786 1.265-1.73 1.898-2.516a24.55 24.55 0 001.729-2.517c8.509-12.264 15.922-26.265 22.386-41.832l40.98-10.065c9.141 41.046 18.436 81.929 27.741 122.976v.005zm-107.645 0h-69.818v-8.176a140.365 140.365 0 0046.494-22.019c.944-.786 2.046-1.419 2.995-2.2.943-.791 2.045-1.577 2.994-2.363.944-.786 2.046-1.572 2.995-2.511.944-.95 2.045-1.736 2.994-2.675a172.18 172.18 0 007.724-7.237l3.622 47.181zM351.491 77.214a62.36 62.36 0 01-25.196-23.002 62.42 62.42 0 01-9.331-32.826v-1.572a52.626 52.626 0 0113.243-1.572c2.673 0 5.198.158 7.724.627a48.509 48.509 0 00-4.418 20.447 48.894 48.894 0 0017.972 37.897h.006zm-40.2 36.483c-8.667 2.991-17.493 5.983-26.166 8.968l2.368-8.024c.158-.469.158-.78.316-1.255.311-.944.469-1.889.785-2.827.317-.945.475-2.047.791-2.992.944-3.46 1.729-6.921 2.52-10.381a256.924 256.924 0 005.837-43.558l13.549 60.069zm124.363-65.26c-1.418 8.024-2.683 15.884-4.101 23.908-12.928 4.4-25.855 8.962-38.929 13.362 6.458-11.954 12.763-23.908 19.227-35.698 7.938-.44 15.871-.964 23.798-1.572h.005z"/><path d="M453.622 99.86l-226.02 55.2c-1.893 10.699-3.786 21.233-5.673 31.926l-11.983-14.464c4.101-7.555 8.356-15.262 12.452-22.805 74.078-25.48 148.162-50.954 222.24-76.275 3.786 7.86 6.78 16.67 8.984 26.418zm-69.349-27.674v2.042c0 2.047-.158 3.93-.469 5.818-.164 1.256-.317 2.358-.633 3.62h-.791c-24.273-.476-43.816-20.131-43.816-44.508 0-6.921 1.582-13.526 4.418-19.344 23.64 5.818 41.291 27.051 41.291 52.372z"/><path d="M418.942 26.264l-30.737 57.083c.633-3.618 1.108-7.232 1.108-11.162 0-26.107-17.024-48.284-40.511-55.986-1.102-.317-2.046-.633-3.153-.944-.785-.164-1.734-.475-2.52-.634-.944-.152-1.734-.31-2.678-.469a55.178 55.178 0 00-10.244-.944 59.12 59.12 0 00-12.927 1.419A73.302 73.302 0 01352.113.621 632.97 632.97 0 01357 .15c1.418-.158 2.836-.158 4.255-.158h.79c12.606.158 24.584 3.46 34.991 9.28.153 0 .311.158.311.158s3.469 2.041 6.306 4.088c2.367 1.572 8.198 5.977 15.289 12.74v.005zM42.709 251.147c-6.3-3.144-11.498-6.762-15.758-11.009l-18.436 18.4H0v-63.841h13.396a102.738 102.738 0 0014.182 29.563c13.718 19.502 31.37 29.256 53.122 29.256 12.764 0 23.013-3.777 30.578-11.484 7.566-7.549 11.509-17.772 11.509-30.512a31.938 31.938 0 00-6.622-19.814 66.794 66.794 0 00-16.396-15.409c-6.458-4.405-15.6-10.065-27.267-16.828-14.815-8.335-26.793-15.725-36.093-22.488a92.877 92.877 0 01-23.482-25.321c-6.463-10.229-9.774-22.177-9.774-36.173 0-11.004 3.152-20.91 9.3-29.72C18.6 36.962 27.9 29.883 40.194 24.534c12.295-5.186 27.426-7.86 45.393-7.86 13.08 0 26.008 3.619 39.088 11.168 4.887 2.674 9.927 6.288 14.814 10.693l18.442-18.4h8.356V83.98h-13.396c-3-10.693-7.255-20.442-13.086-29.252a75.834 75.834 0 00-20.018-21.233c-7.723-5.66-16.86-8.335-27.267-8.335-8.825 0-16.233 3.461-22.538 10.377-6.306 6.921-9.458 15.73-9.458 26.582 0 8.335 2.367 15.72 7.254 22.325a74.469 74.469 0 0017.81 17.302c7.09 4.875 16.707 10.852 28.843 17.773 14.182 8.023 25.533 15.256 34.364 21.544a84.662 84.662 0 0122.221 23.274c5.989 9.279 9.142 19.978 9.142 32.084 0 12.107-3.469 23.116-10.407 33.023-6.927 9.907-17.335 17.931-31.364 23.744-13.871 5.829-30.894 8.81-50.749 8.81-16.08-.159-30.894-3.772-44.924-10.852h-.005zm428.564 5.502l21.12-5.185V27.203l-21.12-5.186v-5.19h100.091v5.185l-21.12 5.191v225.986h75.496c7.565-18.084 15.289-36.167 22.855-54.256h10.56v63.066H471.273v-5.35z"/></g><defs><clipPath id="clip0_241_5796"><path fill="#fff" d="M0 0h660v262H0z"/></clipPath></defs></svg>