<svg width="126" height="50" fill="none" xmlns="http://www.w3.org/2000/svg"><g clip-path="url(#clip0_822_5166)" fill="#202020"><path d="M85.607 37.245a21.64 21.64 0 01-.812 1.92 26.689 26.689 0 01-1.264 2.25c-.121.182-.21.332-.331.482-.12.15-.21.33-.332.48-1.474 1.98-3.248 3.572-5.355 4.772-2.919 1.68-6.32 2.611-10.17 2.701H66.8l-2.86-12.604h21.666v-.001zm1.746-10.774c0 3.661-.48 6.932-1.414 9.814h-4.363c-.903-2.402-1.775-4.771-2.678-7.173l-3.701-2.61c.331-1.293.692-2.612 1.023-3.903 3.52-.87 7.041-1.71 10.592-2.581.06.24.09.48.12.72.03.18.06.33.06.48.151 1.231.27 2.372.331 3.362v.27c.031.51.031 1.08.031 1.62zM55.91 8.914a43.655 43.655 0 01-.752 7.442c-.181 1.051-.422 2.101-.662 3.182-.06.21-.091.42-.15.63-.06.21-.091.39-.151.6-.06.27-.15.57-.241.84a47.11 47.11 0 01-.662 2.192 906.78 906.78 0 01-8.335 2.851c.361-1.95.692-3.902 1.053-5.882.06-.421.15-.84.24-1.292.032-.149.06-.329.09-.479.423-1.89 1.025-3.661 1.806-5.252 1.535-3.151 3.671-5.613 6.38-7.414.3-.207.611-.397.933-.57l.36-.18v.15c.031.21.031.42.031.63.06.871.06 1.711.06 2.552zM51.514 28.6c-1.233 2.852-2.647 5.432-4.271 7.684a.912.912 0 00-.151.21l-.18.27c-.121.15-.241.33-.362.48-.361.48-.722.93-1.114 1.35-.09.09-.18.18-.24.3-.06.06-.12.15-.21.21-.15.151-.302.33-.452.48-.361.391-.722.75-1.083 1.11-.18.181-.391.361-.602.542a8.662 8.662 0 01-.572.51c.692-3.813 1.385-7.594 2.047-11.404 2.376-.571 4.784-1.14 7.191-1.742zm14.293 21.28h-.18c-3.852-.12-7.222-1.022-10.171-2.702-3.16-1.8-5.567-4.472-7.282-7.983a25.309 25.309 0 01-.692-1.59c.09-.12.18-.211.24-.33.12-.15.241-.331.362-.481.12-.15.24-.33.33-.48 1.625-2.34 3.04-5.013 4.274-7.984l7.823-1.92c1.745 7.833 3.52 15.635 5.296 23.468v.001zm-20.55 0H31.928v-1.56a26.802 26.802 0 008.876-4.202c.18-.15.39-.271.572-.42.18-.151.39-.301.572-.451.18-.15.39-.3.571-.48.18-.18.39-.33.572-.51.511-.45.992-.9 1.474-1.38l.692 9.003zm21.846-35.145A11.904 11.904 0 0160.51 4.08v-.3a10.051 10.051 0 012.529-.3c.51 0 .992.03 1.474.12a9.257 9.257 0 00-.843 3.902 9.333 9.333 0 003.43 7.232h.002zm-7.675 6.962c-1.654.57-3.34 1.142-4.995 1.712l.452-1.532c.03-.09.03-.149.06-.24.06-.18.09-.36.15-.539.06-.18.09-.39.151-.57.18-.661.33-1.322.481-1.982a49.013 49.013 0 001.115-8.313l2.586 11.464zM83.17 9.244c-.27 1.531-.512 3.031-.783 4.562-2.468.84-4.936 1.71-7.432 2.55 1.233-2.28 2.437-4.562 3.671-6.812 1.515-.084 3.03-.184 4.543-.3h.001z"/><path d="M86.6 19.057L43.451 29.592c-.361 2.041-.723 4.052-1.083 6.092l-2.288-2.76c.784-1.442 1.596-2.912 2.378-4.352 14.142-4.863 28.285-9.724 42.427-14.556.723 1.5 1.295 3.18 1.715 5.041zm-13.239-5.281v.39c0 .39-.03.75-.09 1.11-.03.24-.06.45-.12.69H73c-4.634-.09-8.365-3.841-8.365-8.493 0-1.32.302-2.581.843-3.692 4.513 1.11 7.883 5.163 7.883 9.995z"/><path d="M79.98 5.012l-5.868 10.894c.12-.69.211-1.38.211-2.13 0-4.983-3.25-9.215-7.734-10.685-.21-.06-.39-.12-.601-.18-.15-.031-.332-.09-.481-.12-.18-.03-.332-.06-.512-.09-.645-.121-1.3-.182-1.955-.18-.844 0-1.656.09-2.468.27a13.997 13.997 0 016.65-2.673c.302-.03.601-.059.933-.09.27-.03.541-.03.812-.03h.15c2.407.03 4.694.661 6.68 1.771.03 0 .06.03.06.03s.662.39 1.204.78c.452.3 1.565 1.141 2.919 2.432v.001zM8.154 47.93c-1.203-.6-2.196-1.29-3.009-2.101l-3.52 3.511H0V37.156h2.557a19.603 19.603 0 002.708 5.642c2.619 3.721 5.989 5.583 10.141 5.583 2.437 0 4.394-.721 5.838-2.192 1.444-1.44 2.197-3.392 2.197-5.823a6.093 6.093 0 00-1.264-3.781 12.75 12.75 0 00-3.13-2.94c-1.233-.841-2.978-1.922-5.206-3.212-2.828-1.59-5.115-3.001-6.89-4.292a17.727 17.727 0 01-4.483-4.832C1.234 19.357.602 17.077.602 14.406c0-2.1.602-3.99 1.775-5.672 1.174-1.68 2.95-3.031 5.296-4.052 2.348-.99 5.236-1.5 8.666-1.5 2.498 0 4.965.69 7.463 2.131.933.51 1.895 1.2 2.828 2.04l3.52-3.51h1.596v12.184h-2.558c-.572-2.041-1.385-3.901-2.498-5.583a14.475 14.475 0 00-3.822-4.052c-1.474-1.08-3.218-1.59-5.205-1.59-1.685 0-3.1.66-4.303 1.98-1.204 1.32-1.805 3.002-1.805 5.073 0 1.59.451 3 1.385 4.26.94 1.283 2.09 2.4 3.4 3.302 1.353.93 3.189 2.071 5.506 3.392 2.707 1.531 4.874 2.911 6.56 4.111a16.16 16.16 0 014.243 4.442c1.143 1.77 1.745 3.813 1.745 6.123s-.662 4.412-1.987 6.302c-1.322 1.89-3.31 3.422-5.988 4.531C23.771 49.431 20.521 50 16.731 50c-3.07-.03-5.898-.72-8.576-2.071h-.001zm81.816 1.05l4.032-.99V5.191l-4.032-.99v-.99h19.109v.99l-4.032.99v43.127h14.412c1.445-3.45 2.919-6.902 4.364-10.354h2.016V50H89.97v-1.021z"/></g><defs><clipPath id="clip0_822_5166"><path fill="#fff" d="M0 0h126v50H0z"/></clipPath></defs></svg>