<svg width="126" height="50" viewBox="0 0 126 50" fill="none" xmlns="http://www.w3.org/2000/svg">
<g clip-path="url(#clip0_918_19605)">
<path d="M85.6073 37.2449C85.3676 37.8979 85.0966 38.5389 84.7951 39.1657C84.4036 39.947 83.9829 40.697 83.5309 41.4157C83.4102 41.597 83.3206 41.747 83.1998 41.897C83.0801 42.047 82.9895 42.2272 82.8687 42.3761C81.3942 44.3574 79.6197 45.9491 77.5131 47.1491C74.5943 48.8293 71.1934 49.7605 67.3425 49.8501H66.8011L63.9416 37.2459H85.6073V37.2449ZM87.3536 26.4709C87.3536 30.1324 86.8725 33.4032 85.9395 36.2845H81.5764C80.6736 33.8834 79.8009 31.5136 78.8981 29.1116L75.1972 26.5011C75.5284 25.2095 75.8897 23.8897 76.2198 22.5991C79.7405 21.7293 83.2612 20.8886 86.8121 20.0178C86.8725 20.2574 86.9028 20.498 86.9319 20.7386C86.9631 20.9189 86.9923 21.0689 86.9923 21.2178C87.1433 22.4491 87.263 23.5897 87.3234 24.5803V24.8501C87.3547 25.3605 87.3547 25.9303 87.3547 26.4709H87.3536ZM55.9088 8.91365C55.8717 11.4115 55.6201 13.9016 55.157 16.3564C54.9758 17.4074 54.7353 18.4574 54.4947 19.5376C54.4343 19.748 54.4041 19.9584 54.3448 20.1678C54.2844 20.3782 54.2542 20.5584 54.1938 20.7689C54.1334 21.0386 54.0438 21.3386 53.9532 21.6084C53.7429 22.3584 53.5315 23.0793 53.2909 23.8001C50.5173 24.7639 47.739 25.7143 44.9562 26.6511C45.3175 24.7001 45.6487 22.7491 46.009 20.7689C46.0694 20.348 46.16 19.9282 46.2495 19.4772C46.2808 19.3282 46.3099 19.148 46.3401 18.998C46.7619 17.1074 47.3637 15.3366 48.1458 13.7459C49.6807 10.5949 51.8164 8.13344 54.5249 6.3324C54.8249 6.12497 55.1364 5.93473 55.4579 5.76261L55.8182 5.5824V5.7324C55.8495 5.94281 55.8495 6.15219 55.8495 6.3626C55.9088 7.23344 55.9088 8.07302 55.9088 8.91365ZM51.5145 28.6012C50.2815 31.4532 48.8674 34.0334 47.2429 36.2845C47.1829 36.3471 47.132 36.4179 47.092 36.4949L46.9118 36.7657C46.791 36.9147 46.6713 37.0949 46.5505 37.2449C46.1891 37.7251 45.8278 38.1751 45.4363 38.5959C45.3467 38.6855 45.2561 38.7751 45.1968 38.8959C45.1364 38.9553 45.076 39.0459 44.9854 39.1053C44.8354 39.2564 44.6844 39.4355 44.5345 39.5855C44.1731 39.9762 43.8118 40.3355 43.4515 40.6959C43.2703 40.8762 43.06 41.0564 42.8496 41.2366C42.6663 41.4151 42.4752 41.5854 42.2769 41.747C42.9694 37.9345 43.6618 34.1532 44.3241 30.3428C46.7004 29.772 49.108 29.2022 51.5155 28.6012H51.5145ZM65.8076 49.8803H65.6264C61.7756 49.7605 58.4049 48.8595 55.4559 47.1793C52.2965 45.3782 49.889 42.7074 48.1739 39.1959C47.9253 38.6738 47.6947 38.1433 47.4825 37.6053C47.572 37.4855 47.6626 37.3949 47.722 37.2751C47.8428 37.1251 47.9635 36.9449 48.0843 36.7949C48.2041 36.6449 48.3238 36.4647 48.4144 36.3147C50.0389 33.9741 51.4541 31.3022 52.688 28.3314L60.5115 26.4105C62.2567 34.2439 64.0311 42.0459 65.8076 49.8793V49.8803ZM45.2571 49.8803H31.9282V48.3199C35.1204 47.4779 38.1296 46.0533 40.8045 44.1178C40.9846 43.9678 41.195 43.847 41.3761 43.698C41.5563 43.547 41.7666 43.397 41.9478 43.247C42.128 43.097 42.3383 42.947 42.5195 42.7678C42.6997 42.5866 42.91 42.4366 43.0912 42.2574C43.6025 41.8064 44.0836 41.3564 44.5657 40.8762L45.2571 49.8803ZM67.1031 14.7355C65.123 13.748 63.4573 12.2279 62.293 10.3459C61.1286 8.46397 60.5117 6.29459 60.5115 4.08135V3.78136C61.3381 3.57458 62.1877 3.47377 63.0398 3.48135C63.5501 3.48135 64.0322 3.51156 64.5143 3.60115C63.9527 4.82497 63.6649 6.15664 63.6709 7.50323C63.6705 8.88787 63.9783 10.2552 64.5717 11.5061C65.1652 12.7571 66.0295 13.8602 67.102 14.7355H67.1031ZM59.4285 21.698C57.7738 22.2689 56.089 22.8397 54.4333 23.4095L54.8852 21.8782C54.9154 21.7886 54.9154 21.7293 54.9456 21.6386C55.005 21.4584 55.0352 21.2782 55.0956 21.0991C55.156 20.9189 55.1862 20.7084 55.2466 20.5282C55.4267 19.8678 55.5767 19.2074 55.7276 18.547C56.3359 15.8131 56.7087 13.0321 56.8419 10.2345L59.4285 21.698ZM83.1707 9.24385C82.8999 10.7751 82.6583 12.2751 82.3876 13.8064C79.9196 14.6459 77.4517 15.5168 74.9557 16.3564C76.1886 14.0751 77.3923 11.7939 78.6263 9.54386C80.1418 9.45979 81.6563 9.35978 83.1696 9.24385H83.1707Z" fill="#FAF8F4"/>
<path d="M86.6006 19.0573L43.4513 29.5917C43.09 31.6333 42.7286 33.6437 42.3684 35.6844L40.0806 32.924C40.8636 31.4823 41.6759 30.0115 42.4579 28.5719C56.6001 23.7094 70.7433 18.8479 84.8855 14.0156C85.6082 15.5156 86.1799 17.1969 86.6006 19.0573ZM73.3612 13.776V14.1656C73.3612 14.5562 73.331 14.9156 73.2717 15.276C73.2404 15.5156 73.2113 15.726 73.1509 15.9667H72.9999C68.366 15.876 64.6349 12.125 64.6349 7.47292C64.6349 6.15208 64.9369 4.89167 65.4784 3.78125C69.9915 4.89167 73.3612 8.94375 73.3612 13.776Z" fill="#FAF8F4"/>
<path d="M79.9798 5.01208L74.112 15.9058C74.2327 15.2152 74.3233 14.5256 74.3233 13.7756C74.3233 8.79333 71.0734 4.56103 66.5894 3.09124C66.3791 3.03083 66.1989 2.97041 65.9876 2.91104C65.8376 2.87979 65.6564 2.82041 65.5065 2.7902C65.3263 2.76103 65.1753 2.73083 64.9952 2.70062C64.3503 2.5798 63.6956 2.51947 63.0396 2.52041C62.1961 2.52041 61.3839 2.61104 60.5716 2.79124C62.5189 1.33819 64.8106 0.417038 67.2215 0.118327C67.5235 0.0881185 67.8234 0.0589518 68.1545 0.0287435C68.4253 -0.00146484 68.696 -0.00146484 68.9668 -0.00146484H69.1178C71.5243 0.0287435 73.811 0.658952 75.7979 1.76937C75.827 1.76937 75.8572 1.79958 75.8572 1.79958C75.8572 1.79958 76.5195 2.18916 77.061 2.57978C77.5129 2.87979 78.6261 3.72041 79.9798 5.01103V5.01208ZM8.15355 47.9287C6.95083 47.3287 5.95845 46.6381 5.14517 45.8277L1.6255 49.3392H0V37.1558H2.55749C3.15208 39.1693 4.06621 41.0741 5.26493 42.7975C7.88385 46.5194 11.2536 48.3808 15.4064 48.3808C17.8431 48.3808 19.7997 47.66 21.244 46.1892C22.6883 44.7485 23.4412 42.7975 23.4412 40.3662C23.4557 38.9997 23.0105 37.6679 22.177 36.585C21.3073 35.4348 20.2489 34.4405 19.0468 33.6444C17.8139 32.8037 16.0686 31.7235 13.8413 30.4329C11.013 28.8423 8.72628 27.4319 6.95083 26.1412C5.16766 24.825 3.64708 23.1859 2.46793 21.309C1.23397 19.3569 0.601884 17.0767 0.601884 14.4058C0.601884 12.3058 1.20377 10.4152 2.37734 8.73395C3.55091 7.05374 5.32636 5.7027 7.6735 4.68187C10.0206 3.69228 12.9093 3.18187 16.3394 3.18187C18.8365 3.18187 21.3044 3.87249 23.8015 5.31312C24.7345 5.82353 25.6967 6.51312 26.6297 7.35374L30.1504 3.84228H31.7458V16.0267H29.1883C28.6155 13.986 27.8033 12.1256 26.6901 10.4444C25.6905 8.85895 24.3926 7.48279 22.8685 6.39228C21.394 5.31208 19.6498 4.80166 17.6629 4.80166C15.9781 4.80166 14.5639 5.46208 13.3602 6.78187C12.1564 8.1027 11.5545 9.78395 11.5545 11.8548C11.5545 13.4454 12.0064 14.8548 12.9395 16.1152C13.8801 17.3984 15.0294 18.5147 16.3394 19.4173C17.6931 20.3475 19.529 21.4881 21.8459 22.809C24.5533 24.3402 26.7203 25.7204 28.4062 26.9204C30.0912 28.116 31.5313 29.6238 32.6486 31.3621C33.792 33.1329 34.3938 35.1746 34.3938 37.485C34.3938 39.7954 33.7316 41.8965 32.407 43.7871C31.0845 45.6777 29.0977 47.209 26.4194 48.3183C23.7713 49.4308 20.5213 49.9996 16.7309 49.9996C13.6611 49.9694 10.8329 49.2798 8.1546 47.9287H8.15355ZM89.9703 48.9787L94.0023 47.9892V5.19124L89.9703 4.20166V3.21104H109.079V4.20062L105.047 5.19124V48.3183H119.459C120.904 44.8673 122.378 41.4162 123.823 37.9642H125.839V49.9996H89.9703V48.9787Z" fill="#FAF8F4"/>
</g>
<defs>
<clipPath id="clip0_918_19605">
<rect width="126" height="50" fill="white"/>
</clipPath>
</defs>
</svg>
