<?xml version="1.0" encoding="utf-8"?><svg viewBox="0 0 492 492" xmlns="http://www.w3.org/2000/svg" xmlns:xlink="http://www.w3.org/1999/xlink"><style>:root>svg{display:none}:root>svg:target{display:block}</style><svg viewBox="0 0 44 44" id="arrow" xmlns="http://www.w3.org/2000/svg"><path d="M11.47 21.47a.75.75 0 000 1.06l4.773 4.773a.75.75 0 001.06-1.06L13.061 22l4.242-4.243a.75.75 0 00-1.06-1.06L11.47 21.47zM32 21.25H12v1.5h20v-1.5z"/></svg><svg viewBox="0 0 18 14" id="check" xmlns="http://www.w3.org/2000/svg"><path d="M1 7l6 6L17 1"/></svg><svg viewBox="0 0 491.996 491.996" id="chevron" xmlns="http://www.w3.org/2000/svg"><path d="M484.132 124.986l-16.116-16.228c-5.072-5.068-11.82-7.86-19.032-7.86-7.208 0-13.964 2.792-19.036 7.86l-183.84 183.848L62.056 108.554c-5.064-5.068-11.82-7.856-19.028-7.856s-13.968 2.788-19.036 7.856l-16.12 16.128c-10.496 10.488-10.496 27.572 0 38.06l219.136 219.924c5.064 5.064 11.812 8.632 19.084 8.632h.084c7.212 0 13.96-3.572 19.024-8.632l218.932-219.328c5.072-5.064 7.856-12.016 7.864-19.224 0-7.212-2.792-14.068-7.864-19.128z"/></svg><svg viewBox="0 0 16 16" id="close" xmlns="http://www.w3.org/2000/svg"><path d="M9.175 8l6.075-6.075A.833.833 0 0014.075.75L8 6.825 1.925.742A.833.833 0 00.75 1.917L6.825 8 .742 14.075a.834.834 0 101.175 1.175L8 9.175l6.075 6.075a.833.833 0 001.175-1.175L9.175 8z"/></svg><svg viewBox="0 0 32 32" id="location" xmlns="http://www.w3.org/2000/svg"><path d="M16 2A11.013 11.013 0 005 13a10.889 10.889 0 002.216 6.6s.3.395.349.452L16 30l8.439-9.953c.044-.053.345-.447.345-.447l.001-.003A10.885 10.885 0 0027 13 11.013 11.013 0 0016 2zm0 15a4 4 0 110-8 4 4 0 010 8z"/></svg><svg viewBox="0 0 16 17" id="mail" xmlns="http://www.w3.org/2000/svg"><path d="M10.606 8.582L16 11.992V5.028l-5.394 3.554zM0 5.028v6.964l5.394-3.41L0 5.028zM15 3H1a.988.988 0 00-.97.851L8 9.102l7.97-5.251A.988.988 0 0015 3zM9.69 9.186l-1.415.932a.5.5 0 01-.55 0L6.31 9.185.032 13.156A.986.986 0 001 14h14a.986.986 0 00.968-.844L9.69 9.186z"/></svg><svg viewBox="0 0 16 17" id="phone" xmlns="http://www.w3.org/2000/svg"><path d="M12.877 11.19a7.95 7.95 0 01-2.497-.398c-.39-.133-.87-.011-1.11.234l-1.573 1.188c-1.826-.974-2.95-2.099-3.912-3.91L4.94 6.77c.3-.299.407-.736.278-1.146a7.96 7.96 0 01-.4-2.5C4.818 2.503 4.315 2 3.695 2h-2.57C.503 2 0 2.504 0 3.123 0 10.223 5.776 16 12.877 16c.62 0 1.123-.504 1.123-1.123v-2.564c0-.62-.504-1.124-1.123-1.124z"/></svg><svg viewBox="0 0 24 24" id="select-arrow" xmlns="http://www.w3.org/2000/svg"><path d="M15.5 10.5l-3.5 4L8 10c-.39-.39-.9-1.1-1.29-.71a.996.996 0 000 1.41l4.59 4.59c.39.39 1.02.39 1.41 0l4.59-4.59a.996.996 0 000-1.41c-.39-.38-1.41.82-1.8 1.21z"/></svg><svg viewBox="0 0 19 13" id="youtube" xmlns="http://www.w3.org/2000/svg"><path d="M15.602 12.299H3.17c-1.663 0-3.003-1.377-3.003-3.07V3.736c0-1.7 1.347-3.07 3.003-3.07h12.432c1.664 0 3.004 1.377 3.004 3.07V9.23c.007 1.7-1.34 3.07-3.004 3.07z"/><path d="M12.648 6.397l-5.23-2.822v5.644l5.23-2.822z"/></svg></svg>