<svg width="16" height="17" viewBox="0 0 16 17" fill="none" xmlns="http://www.w3.org/2000/svg">
<path d="M10.606 8.58183L15.9999 11.9918V5.02783L10.606 8.58183Z" fill="#202020"/>
<path d="M0 5.02783V11.9918L5.394 8.58183L0 5.02783Z" fill="#202020"/>
<path d="M15.0003 3H1.00027C0.501274 3 0.105273 3.372 0.0302734 3.851L8.00027 9.102L15.9703 3.851C15.8953 3.372 15.4993 3 15.0003 3Z" fill="#202020"/>
<path d="M9.68974 9.18606L8.27474 10.1181C8.19074 10.1731 8.09574 10.2001 7.99974 10.2001C7.90374 10.2001 7.80874 10.1731 7.72474 10.1181L6.30974 9.18506L0.0317383 13.1561C0.108738 13.6311 0.502738 14.0001 0.999738 14.0001H14.9997C15.4967 14.0001 15.8907 13.6311 15.9677 13.1561L9.68974 9.18606Z" fill="#202020"/>
</svg>
